<?xml version="1.0" standalone="no"?>
<!DOCTYPE svg PUBLIC "-//W3C//DTD SVG 20010904//EN"
 "http://www.w3.org/TR/2001/REC-SVG-20010904/DTD/svg10.dtd">
<svg version="1.0" xmlns="http://www.w3.org/2000/svg"
 width="512.000000pt" height="512.000000pt" viewBox="0 0 512.000000 512.000000"
 preserveAspectRatio="xMidYMid meet">
<metadata>
Created by potrace 1.11, written by Peter Selinger 2001-2013
</metadata>
<g transform="translate(0.000000,512.000000) scale(0.100000,-0.100000)"
fill="#000000" stroke="none">
<path d="M2800 4564 c-85 -36 -159 -69 -164 -74 -5 -5 12 -57 40 -125 l49
-115 40 6 c22 4 42 9 45 13 8 11 104 50 111 45 4 -2 22 -40 40 -85 19 -45 39
-83 45 -86 10 -4 222 81 237 96 10 10 -106 285 -139 328 -31 41 -73 63 -116
62 -18 0 -103 -30 -188 -65z"/>
<path d="M2020 4245 c-168 -69 -315 -129 -327 -134 -21 -10 -21 -11 29 -130
28 -67 56 -121 61 -121 14 0 650 259 660 269 11 11 -87 236 -104 238 -8 2
-151 -53 -319 -122z"/>
<path d="M1061 3854 c-178 -73 -326 -136 -329 -138 -4 -5 85 -225 97 -239 8
-8 664 256 668 269 4 13 -92 238 -103 240 -5 1 -155 -58 -333 -132z"/>
<path d="M3226 3922 c-60 -26 -111 -52 -113 -59 -4 -11 251 -630 265 -645 7
-6 233 80 247 94 3 3 -53 147 -126 319 -72 173 -133 320 -136 327 -7 18 -17
15 -137 -36z"/>
<path d="M3856 3654 c-6 -67 -17 -229 -52 -769 -9 -143 -19 -263 -23 -267 -3
-3 -94 70 -201 163 -107 94 -219 191 -249 217 -30 26 -96 83 -146 127 -50 44
-120 105 -155 135 -35 30 -69 61 -76 68 -21 20 -32 14 -60 -33 -38 -65 -43
-151 -14 -227 21 -58 54 -92 290 -305 30 -27 114 -103 185 -168 72 -65 153
-139 181 -164 27 -25 90 -82 138 -126 l89 -80 -7 -114 -6 -114 -69 -81 c-38
-44 -114 -125 -169 -178 -82 -79 -104 -106 -121 -153 -61 -163 5 -334 161
-417 36 -19 59 -23 138 -23 84 0 102 3 152 28 66 33 130 95 160 156 26 54 36
149 44 414 3 108 9 197 13 197 3 0 20 -12 36 -28 225 -206 372 -332 411 -352
42 -21 63 -25 149 -25 92 0 104 2 153 30 71 38 136 112 162 183 45 119 12 263
-81 346 -84 77 -116 85 -364 90 -121 2 -235 7 -252 11 -20 5 -67 38 -118 83
l-85 75 5 61 c3 33 15 289 26 569 23 552 23 554 -30 632 -34 50 -107 96 -164
102 l-45 5 -6 -68z m874 -1660 c15 -9 39 -35 54 -58 66 -100 -7 -231 -128
-231 -87 0 -156 67 -156 153 0 107 139 189 230 136z m-954 -397 c41 -22 74
-76 74 -124 0 -55 -20 -94 -65 -128 -75 -58 -179 -32 -222 55 -29 57 -29 83 2
135 44 76 134 102 211 62z"/>
<path d="M285 3536 c-180 -74 -188 -78 -209 -110 -31 -49 -23 -93 48 -262 37
-87 69 -161 71 -163 9 -9 245 94 245 106 0 8 -14 46 -30 85 -17 40 -29 77 -26
83 2 7 41 27 85 45 45 18 84 36 86 41 10 15 -89 239 -105 238 -8 0 -82 -29
-165 -63z"/>
<path d="M468 2773 c-60 -25 -108 -51 -108 -57 0 -7 56 -146 125 -310 69 -163
125 -301 125 -306 0 -22 26 -17 136 29 74 31 118 54 117 63 -1 7 -59 150 -130
318 -80 189 -134 306 -143 307 -8 1 -63 -19 -122 -44z"/>
<path d="M850 1866 c-57 -24 -106 -49 -108 -54 -3 -9 252 -629 262 -640 2 -1
57 19 122 46 76 31 118 54 117 63 0 8 -59 151 -130 319 -80 190 -134 306 -143
307 -8 1 -62 -17 -120 -41z"/>
<path d="M3028 1442 c-114 -47 -188 -82 -188 -91 0 -23 91 -231 101 -231 11 0
331 128 338 135 2 2 -6 28 -19 57 -16 38 -23 74 -24 130 0 46 -5 78 -11 77 -5
0 -94 -35 -197 -77z"/>
<path d="M2212 1115 c-178 -73 -326 -135 -329 -139 -6 -6 85 -234 97 -241 11
-7 653 260 658 274 4 13 -87 241 -97 240 -3 0 -151 -61 -329 -134z"/>
<path d="M1216 920 c-65 -27 -121 -51 -123 -54 -7 -6 127 -319 145 -340 29
-32 73 -49 113 -43 60 8 349 130 349 147 0 15 -82 215 -92 226 -3 2 -42 -11
-87 -31 -46 -19 -88 -35 -95 -35 -7 0 -27 37 -45 83 -19 45 -36 85 -40 89 -3
4 -60 -15 -125 -42z"/>
</g>
</svg>
