<?xml version="1.0" encoding="utf-8"?>
<!-- Generator: Adobe Illustrator 22.1.0, SVG Export Plug-In . SVG Version: 6.00 Build 0)  -->
<svg version="1.1" id="Layer_1" xmlns="http://www.w3.org/2000/svg" xmlns:xlink="http://www.w3.org/1999/xlink" x="0px" y="0px"
	 viewBox="0 0 70.5 91.5" style="enable-background:new 0 0 70.5 91.5;" xml:space="preserve">
<metadata><?xpacket begin="﻿" id="W5M0MpCehiHzreSzNTczkc9d"?>
<x:xmpmeta xmlns:x="adobe:ns:meta/" x:xmptk="Adobe XMP Core 5.6-c143 79.161356, 2017/09/07-01:11:22        ">
   <rdf:RDF xmlns:rdf="http://www.w3.org/1999/02/22-rdf-syntax-ns#">
      <rdf:Description rdf:about=""/>
   </rdf:RDF>
</x:xmpmeta>
                                                                                                    
                                                                                                    
                                                                                                    
                                                                                                    
                                                                                                    
                                                                                                    
                                                                                                    
                                                                                                    
                                                                                                    
                                                                                                    
                                                                                                    
                                                                                                    
                                                                                                    
                                                                                                    
                                                                                                    
                                                                                                    
                                                                                                    
                                                                                                    
                                                                                                    
                                                                                                    
                           
<?xpacket end="w"?></metadata>
<style type="text/css">
	.st0{fill:#292F36;}
</style>
<g>
	<path class="st0" d="M30,14.9c-14.1,0-25.5,11.5-25.5,25.5C4.4,54.6,15.9,66,30,66c4.8,0,9.3-1.3,13.2-3.7l12.4,12.4
		c2.4,2.4,6.3,2.4,8.7,0c2.4-2.4,2.4-6.3,0-8.7L51.9,53.6c2.3-3.8,3.7-8.3,3.7-13.2C55.5,26.4,44.1,14.9,30,14.9L30,14.9z M30,18.5
		c12.2,0,22,9.8,22,22s-9.8,22-22,22s-22-9.8-22-22S17.8,18.5,30,18.5L30,18.5z M49.8,56.5l12,12c1.1,1.1,1.1,2.7,0,3.7
		c-1.1,1.1-2.7,1.1-3.7,0l-12-12C47.4,59.2,48.7,57.9,49.8,56.5L49.8,56.5z"/>
</g>
</svg>
