<?xml version="1.0" encoding="utf-8"?>
<!-- Generator: Adobe Illustrator 22.1.0, SVG Export Plug-In . SVG Version: 6.00 Build 0)  -->
<svg version="1.1" id="Layer_1" xmlns="http://www.w3.org/2000/svg" xmlns:xlink="http://www.w3.org/1999/xlink" x="0px" y="0px"
	 viewBox="0 0 70.5 91.5" style="enable-background:new 0 0 70.5 91.5;" xml:space="preserve">
<metadata><?xpacket begin="﻿" id="W5M0MpCehiHzreSzNTczkc9d"?>
<x:xmpmeta xmlns:x="adobe:ns:meta/" x:xmptk="Adobe XMP Core 5.6-c143 79.161356, 2017/09/07-01:11:22        ">
   <rdf:RDF xmlns:rdf="http://www.w3.org/1999/02/22-rdf-syntax-ns#">
      <rdf:Description rdf:about=""/>
   </rdf:RDF>
</x:xmpmeta>
                                                                                                    
                                                                                                    
                                                                                                    
                                                                                                    
                                                                                                    
                                                                                                    
                                                                                                    
                                                                                                    
                                                                                                    
                                                                                                    
                                                                                                    
                                                                                                    
                                                                                                    
                                                                                                    
                                                                                                    
                                                                                                    
                                                                                                    
                                                                                                    
                                                                                                    
                                                                                                    
                           
<?xpacket end="w"?></metadata>
<path d="M32.8,72.7C32.8,72.7,32.9,72.7,32.8,72.7c0.2,0.2,0.3,0.3,0.5,0.4c0.1,0,0.1,0.1,0.2,0.1c0.1,0.1,0.2,0.1,0.4,0.2
	c0.1,0,0.2,0.1,0.3,0.1s0.2,0.1,0.4,0.1s0.4,0.1,0.6,0.1h0.1c0.2,0,0.4,0,0.6-0.1c0.2,0,0.3-0.1,0.5-0.1h0.2
	c0.2-0.1,0.3-0.2,0.5-0.3h0.1c0.2-0.1,0.3-0.3,0.5-0.4l27.4-27.4c1.3-1.3,1.3-3.3,0-4.6s-3.3-1.3-4.6,0L38.3,62.5v-53
	c0-1.8-1.5-3.2-3.2-3.2s-3.2,1.5-3.2,3.2v53L10,40.7c-1.3-1.3-3.3-1.3-4.6,0s-1.3,3.3,0,4.6L32.8,72.7z M62.5,78.8H7.7
	c-1.8,0-3.2,1.5-3.2,3.2s1.5,3.2,3.2,3.2h54.7c1.8,0,3.2-1.5,3.2-3.2S64.3,78.8,62.5,78.8z"/>
</svg>
